<svg xmlns="http://www.w3.org/2000/svg" xmlns:xlink="http://www.w3.org/1999/xlink" width="500" zoomAndPan="magnify" viewBox="0 0 375 374.999991" height="500" preserveAspectRatio="xMidYMid meet" version="1.0"><defs><g/></defs><rect x="-37.5" width="450" fill="#ffffff" y="-37.499999" height="449.999989" fill-opacity="1"/><rect x="-37.5" width="450" fill="#000000" y="-37.499999" height="449.999989" fill-opacity="1"/><g fill="#ffffff" fill-opacity="1"><g transform="translate(152.253525, 260.763996)"><g><path d="M 167.53125 24.140625 C 159.0625 26.785156 151.4375 27.257812 144.65625 25.5625 C 137.5625 23.65625 131.421875 20.691406 126.234375 16.671875 C 121.265625 12.648438 116.1875 7.832031 111 2.21875 L 27.3125 -90.515625 L 27.3125 -11.109375 C 27.414062 -7.410156 29.054688 -4.660156 32.234375 -2.859375 C 33.710938 -2.015625 35.300781 -1.59375 37 -1.59375 L 40.015625 -1.59375 L 40.015625 0 L 7.296875 0 L 7.296875 -1.59375 L 10.3125 -1.59375 C 12.96875 -1.59375 15.242188 -2.515625 17.140625 -4.359375 C 19.046875 -6.210938 20 -8.519531 20 -11.28125 L 20 -98.453125 C 19.476562 -99.191406 18.421875 -100.59375 16.828125 -102.65625 C 15.242188 -104.726562 13.921875 -106.394531 12.859375 -107.65625 C 11.796875 -108.925781 10.363281 -110.59375 8.5625 -112.65625 C 6.769531 -114.726562 5.101562 -116.398438 3.5625 -117.671875 C 2.03125 -118.941406 0.257812 -120.421875 -1.75 -122.109375 C -4.925781 -124.546875 -8.3125 -126.289062 -11.90625 -127.34375 C -15.507812 -128.40625 -18.554688 -128.9375 -21.046875 -128.9375 C -23.535156 -128.9375 -26.207031 -128.515625 -29.0625 -127.671875 L -29.703125 -129.265625 C -24.617188 -131.378906 -19.71875 -132.4375 -15 -132.4375 C -10.289062 -132.4375 -6.242188 -131.878906 -2.859375 -130.765625 C 0.523438 -129.660156 4.175781 -127.675781 8.09375 -124.8125 C 12.007812 -121.957031 15.210938 -119.3125 17.703125 -116.875 C 20.191406 -114.4375 23.179688 -111.257812 26.671875 -107.34375 L 106.703125 -18.421875 L 106.703125 -99.890625 C 106.597656 -102.640625 105.59375 -104.9375 103.6875 -106.78125 C 101.78125 -108.632812 99.503906 -109.5625 96.859375 -109.5625 L 93.84375 -109.5625 L 93.84375 -111.15625 L 126.5625 -111.15625 L 126.5625 -109.5625 L 123.703125 -109.5625 C 121.054688 -109.5625 118.78125 -108.632812 116.875 -106.78125 C 114.96875 -104.9375 113.960938 -102.691406 113.859375 -100.046875 L 113.859375 -10.328125 C 114.910156 -9.160156 116.414062 -7.410156 118.375 -5.078125 C 120.332031 -2.753906 121.707031 -1.113281 122.5 -0.15625 C 123.300781 0.789062 124.492188 2.164062 126.078125 3.96875 C 127.671875 5.769531 129.019531 7.171875 130.125 8.171875 C 131.238281 9.179688 132.613281 10.453125 134.25 11.984375 C 135.894531 13.523438 137.429688 14.742188 138.859375 15.640625 C 140.296875 16.535156 141.910156 17.566406 143.703125 18.734375 C 146.242188 20.222656 149.128906 21.335938 152.359375 22.078125 C 155.585938 22.816406 158.234375 23.1875 160.296875 23.1875 C 162.367188 23.1875 164.566406 22.972656 166.890625 22.546875 Z M 167.53125 24.140625 "/></g></g></g><g fill="#ffffff" fill-opacity="1"><g transform="translate(100.475528, 221.73005)"><g><path d="M 150.546875 27 C 146.097656 28.164062 142.148438 28.75 138.703125 28.75 C 135.265625 28.75 132.222656 28.535156 129.578125 28.109375 C 126.929688 27.679688 124.097656 26.859375 121.078125 25.640625 C 118.066406 24.421875 115.234375 23.019531 112.578125 21.4375 C 109.929688 19.851562 107.285156 17.894531 104.640625 15.5625 C 99.773438 11.644531 95.359375 7.410156 91.390625 2.859375 C 87.421875 -1.691406 79.769531 -10.238281 68.4375 -22.78125 C 57.113281 -35.332031 49.597656 -43.671875 45.890625 -47.796875 C 42.179688 -51.921875 39.320312 -54.09375 37.3125 -54.3125 L 37.3125 -55.890625 C 43.457031 -55.890625 47.5625 -56.019531 49.625 -56.28125 C 51.6875 -56.550781 53.878906 -57.03125 56.203125 -57.71875 C 58.535156 -58.40625 60.5 -59.332031 62.09375 -60.5 C 68.332031 -64.519531 71.453125 -71.191406 71.453125 -80.515625 C 71.453125 -88.242188 69.734375 -94.4375 66.296875 -99.09375 C 62.859375 -103.75 58.015625 -106.128906 51.765625 -106.234375 L 32.078125 -106.234375 L 32.078125 -11.59375 C 32.078125 -8.945312 33.054688 -6.617188 35.015625 -4.609375 C 36.972656 -2.597656 39.378906 -1.59375 42.234375 -1.59375 L 44.140625 -1.59375 L 44.296875 0 L 9.53125 0 L 9.53125 -1.59375 L 11.59375 -1.59375 C 14.238281 -1.59375 16.566406 -2.539062 18.578125 -4.4375 C 20.585938 -6.34375 21.644531 -8.675781 21.75 -11.4375 L 21.75 -99.5625 C 21.644531 -102.3125 20.613281 -104.664062 18.65625 -106.625 C 16.695312 -108.582031 14.34375 -109.5625 11.59375 -109.5625 L 9.53125 -109.5625 L 9.53125 -111.15625 L 52.40625 -111.15625 C 61.71875 -111.15625 69.207031 -108.535156 74.875 -103.296875 C 80.539062 -98.054688 83.375 -91.117188 83.375 -82.484375 C 83.375 -73.859375 80.78125 -66.445312 75.59375 -60.25 C 70.40625 -54.0625 64.050781 -50.96875 56.53125 -50.96875 C 56.53125 -50.96875 56.476562 -50.96875 56.375 -50.96875 C 59.96875 -47.15625 64.039062 -42.710938 68.59375 -37.640625 C 86.914062 -17.410156 98.671875 -4.707031 103.859375 0.46875 C 109.046875 5.65625 113.625 9.914062 117.59375 13.25 C 121.5625 16.59375 125.082031 19.054688 128.15625 20.640625 C 134.394531 24.023438 140.585938 25.71875 146.734375 25.71875 C 148.003906 25.71875 149.273438 25.613281 150.546875 25.40625 Z M 150.546875 27 "/></g></g></g><path fill="#000000" d="M 106.269531 179.5 L 268.722656 179.5 C 269.785156 179.5 270.804688 179.921875 271.554688 180.671875 C 272.304688 181.421875 272.726562 182.4375 272.726562 183.5 L 272.726562 191.503906 C 272.726562 192.566406 272.304688 193.582031 271.554688 194.332031 C 270.804688 195.082031 269.785156 195.503906 268.722656 195.503906 L 106.269531 195.503906 C 105.207031 195.503906 104.191406 195.082031 103.4375 194.332031 C 102.6875 193.582031 102.265625 192.566406 102.265625 191.503906 L 102.265625 183.5 C 102.265625 182.4375 102.6875 181.421875 103.4375 180.671875 C 104.191406 179.921875 105.207031 179.5 106.269531 179.5 Z M 106.269531 179.5 " fill-opacity="1" fill-rule="nonzero"/><g fill="#ffffff" fill-opacity="1"><g transform="translate(110.084837, 190.501951)"><g><path d="M 6.34375 -1.234375 L 6.65625 -0.234375 C 6.519531 -0.128906 6.351562 -0.0507812 6.15625 0 C 5.96875 0.0625 5.765625 0.09375 5.546875 0.09375 C 4.796875 0.09375 4.207031 -0.238281 3.78125 -0.90625 L 2.75 -2.484375 C 2.644531 -2.648438 2.535156 -2.765625 2.421875 -2.828125 C 2.304688 -2.898438 2.179688 -2.9375 2.046875 -2.9375 L 2 -2.9375 L 2 0 L 0.734375 0 L 0.734375 -7.109375 L 2.9375 -7.109375 C 3.84375 -7.109375 4.523438 -6.921875 4.984375 -6.546875 C 5.453125 -6.171875 5.6875 -5.660156 5.6875 -5.015625 C 5.6875 -4.617188 5.597656 -4.273438 5.421875 -3.984375 C 5.253906 -3.703125 5.019531 -3.476562 4.71875 -3.3125 C 4.414062 -3.144531 4.078125 -3.039062 3.703125 -3 C 3.898438 -2.882812 4.082031 -2.703125 4.25 -2.453125 L 4.8125 -1.625 C 4.957031 -1.40625 5.09375 -1.253906 5.21875 -1.171875 C 5.351562 -1.097656 5.519531 -1.0625 5.71875 -1.0625 C 5.945312 -1.0625 6.15625 -1.117188 6.34375 -1.234375 Z M 2.859375 -6.046875 L 2 -6.046875 L 2 -3.953125 L 2.796875 -3.953125 C 3.335938 -3.953125 3.738281 -4.035156 4 -4.203125 C 4.257812 -4.367188 4.390625 -4.640625 4.390625 -5.015625 C 4.390625 -5.703125 3.878906 -6.046875 2.859375 -6.046875 Z M 2.859375 -6.046875 "/></g></g></g><g fill="#ffffff" fill-opacity="1"><g transform="translate(123.982307, 190.501951)"><g><path d="M 0.734375 0 L 0.734375 -7.109375 L 2.03125 -7.109375 L 2.03125 0 Z M 0.734375 0 "/></g></g></g><g fill="#ffffff" fill-opacity="1"><g transform="translate(134.367013, 190.501951)"><g><path d="M 5.25 -7.109375 L 6.546875 -7.109375 L 3.953125 0 L 2.140625 0 L -0.015625 -7.109375 L 1.375 -7.109375 L 3.125 -1.09375 Z M 5.25 -7.109375 "/></g></g></g><g fill="#ffffff" fill-opacity="1"><g transform="translate(148.274485, 190.501951)"><g><path d="M 5.3125 -5.984375 L 2 -5.984375 L 2 -4.15625 L 5.140625 -4.15625 L 5.140625 -3.03125 L 2 -3.03125 L 2 -1.125 L 5.421875 -1.125 L 5.34375 0 L 0.734375 0 L 0.734375 -7.109375 L 5.3125 -7.109375 Z M 5.3125 -5.984375 "/></g></g></g><g fill="#ffffff" fill-opacity="1"><g transform="translate(161.551467, 190.501951)"><g><path d="M 6.34375 -1.234375 L 6.65625 -0.234375 C 6.519531 -0.128906 6.351562 -0.0507812 6.15625 0 C 5.96875 0.0625 5.765625 0.09375 5.546875 0.09375 C 4.796875 0.09375 4.207031 -0.238281 3.78125 -0.90625 L 2.75 -2.484375 C 2.644531 -2.648438 2.535156 -2.765625 2.421875 -2.828125 C 2.304688 -2.898438 2.179688 -2.9375 2.046875 -2.9375 L 2 -2.9375 L 2 0 L 0.734375 0 L 0.734375 -7.109375 L 2.9375 -7.109375 C 3.84375 -7.109375 4.523438 -6.921875 4.984375 -6.546875 C 5.453125 -6.171875 5.6875 -5.660156 5.6875 -5.015625 C 5.6875 -4.617188 5.597656 -4.273438 5.421875 -3.984375 C 5.253906 -3.703125 5.019531 -3.476562 4.71875 -3.3125 C 4.414062 -3.144531 4.078125 -3.039062 3.703125 -3 C 3.898438 -2.882812 4.082031 -2.703125 4.25 -2.453125 L 4.8125 -1.625 C 4.957031 -1.40625 5.09375 -1.253906 5.21875 -1.171875 C 5.351562 -1.097656 5.519531 -1.0625 5.71875 -1.0625 C 5.945312 -1.0625 6.15625 -1.117188 6.34375 -1.234375 Z M 2.859375 -6.046875 L 2 -6.046875 L 2 -3.953125 L 2.796875 -3.953125 C 3.335938 -3.953125 3.738281 -4.035156 4 -4.203125 C 4.257812 -4.367188 4.390625 -4.640625 4.390625 -5.015625 C 4.390625 -5.703125 3.878906 -6.046875 2.859375 -6.046875 Z M 2.859375 -6.046875 "/></g></g></g><g fill="#ffffff" fill-opacity="1"><g transform="translate(175.448937, 190.501951)"><g/></g></g><g fill="#ffffff" fill-opacity="1"><g transform="translate(185.503389, 190.501951)"><g><path d="M 5.40625 -7.109375 L 6.65625 -7.109375 L 6.65625 0 L 5.515625 0 L 1.984375 -4.953125 L 1.984375 0 L 0.734375 0 L 0.734375 -7.109375 L 1.875 -7.109375 L 5.40625 -2.15625 Z M 5.40625 -7.109375 "/></g></g></g><g fill="#ffffff" fill-opacity="1"><g transform="translate(200.511725, 190.501951)"><g><path d="M 4.203125 -3.703125 L 7.015625 -3.703125 L 7.015625 0 L 5.984375 0 L 5.875 -0.765625 C 5.644531 -0.453125 5.347656 -0.226562 4.984375 -0.09375 C 4.628906 0.03125 4.234375 0.09375 3.796875 0.09375 C 3.117188 0.09375 2.523438 -0.046875 2.015625 -0.328125 C 1.515625 -0.609375 1.128906 -1.007812 0.859375 -1.53125 C 0.585938 -2.0625 0.453125 -2.691406 0.453125 -3.421875 C 0.453125 -4.171875 0.601562 -4.828125 0.90625 -5.390625 C 1.21875 -5.960938 1.660156 -6.410156 2.234375 -6.734375 C 2.804688 -7.054688 3.476562 -7.21875 4.25 -7.21875 C 4.875 -7.21875 5.410156 -7.097656 5.859375 -6.859375 C 6.304688 -6.628906 6.675781 -6.28125 6.96875 -5.8125 L 5.96875 -5.078125 C 5.789062 -5.398438 5.546875 -5.632812 5.234375 -5.78125 C 4.929688 -5.9375 4.597656 -6.015625 4.234375 -6.015625 C 3.734375 -6.015625 3.300781 -5.90625 2.9375 -5.6875 C 2.570312 -5.476562 2.289062 -5.175781 2.09375 -4.78125 C 1.894531 -4.394531 1.796875 -3.945312 1.796875 -3.4375 C 1.796875 -2.6875 1.984375 -2.101562 2.359375 -1.6875 C 2.742188 -1.28125 3.265625 -1.078125 3.921875 -1.078125 C 4.234375 -1.078125 4.53125 -1.132812 4.8125 -1.25 C 5.09375 -1.363281 5.320312 -1.53125 5.5 -1.75 C 5.675781 -1.976562 5.765625 -2.253906 5.765625 -2.578125 L 5.765625 -2.640625 L 4.203125 -2.640625 Z M 4.203125 -3.703125 "/></g></g></g><g fill="#ffffff" fill-opacity="1"><g transform="translate(215.660171, 190.501951)"><g><path d="M 5.453125 -7.109375 L 6.75 -7.109375 L 6.765625 -3.328125 C 6.765625 -2.617188 6.644531 -2.007812 6.40625 -1.5 C 6.175781 -0.988281 5.832031 -0.59375 5.375 -0.3125 C 4.925781 -0.0390625 4.382812 0.09375 3.75 0.09375 C 2.738281 0.09375 1.976562 -0.160156 1.46875 -0.671875 C 0.957031 -1.179688 0.703125 -1.960938 0.703125 -3.015625 L 0.703125 -7.109375 L 2 -7.109375 L 2 -3.109375 C 2 -2.398438 2.144531 -1.882812 2.4375 -1.5625 C 2.726562 -1.238281 3.160156 -1.078125 3.734375 -1.078125 C 4.316406 -1.078125 4.753906 -1.265625 5.046875 -1.640625 C 5.335938 -2.015625 5.476562 -2.597656 5.46875 -3.390625 Z M 5.453125 -7.109375 "/></g></g></g><g fill="#ffffff" fill-opacity="1"><g transform="translate(230.738562, 190.501951)"><g><path d="M 6.09375 -7.109375 L 3.609375 -3.1875 L 3.609375 0 L 2.296875 0 L 2.296875 -3.15625 L -0.265625 -7.109375 L 1.21875 -7.109375 L 3 -4.3125 L 4.734375 -7.109375 Z M 6.09375 -7.109375 "/></g></g></g><g fill="#ffffff" fill-opacity="1"><g transform="translate(244.235723, 190.501951)"><g><path d="M 5.3125 -5.984375 L 2 -5.984375 L 2 -4.15625 L 5.140625 -4.15625 L 5.140625 -3.03125 L 2 -3.03125 L 2 -1.125 L 5.421875 -1.125 L 5.34375 0 L 0.734375 0 L 0.734375 -7.109375 L 5.3125 -7.109375 Z M 5.3125 -5.984375 "/></g></g></g><g fill="#ffffff" fill-opacity="1"><g transform="translate(257.5127, 190.501951)"><g><path d="M 5.40625 -7.109375 L 6.65625 -7.109375 L 6.65625 0 L 5.515625 0 L 1.984375 -4.953125 L 1.984375 0 L 0.734375 0 L 0.734375 -7.109375 L 1.875 -7.109375 L 5.40625 -2.15625 Z M 5.40625 -7.109375 "/></g></g></g></svg>